<?xml version="1.0" encoding="UTF-8"?>
<svg version="1.1" xmlns="http://www.w3.org/2000/svg" width="490" height="607">
<path d="M0 0 C161.7 0 323.4 0 490 0 C490 200.31 490 400.62 490 607 C328.3 607 166.6 607 0 607 C0 406.69 0 206.38 0 0 Z " fill="#FDFDFD" transform="translate(0,0)"/>
<path d="M0 0 C0.72687012 0.10151367 1.45374023 0.20302734 2.20263672 0.30761719 C34.04998833 4.92787436 64.38364031 20.4818802 88 42 C88.5062793 42.45568359 89.01255859 42.91136719 89.53417969 43.38085938 C115.72888579 67.23705286 129.55115217 101.40111131 134 136 C134.08355027 138.16489183 134.12208279 140.33189513 134.12025452 142.49839783 C134.12231651 144.39339523 134.12231651 144.39339523 134.12442017 146.32667542 C134.12088197 147.70858789 134.11724717 149.09050012 134.11352539 150.47241211 C134.11324303 151.94140623 134.11340221 153.41040049 134.1139679 154.87939453 C134.11425396 158.85200628 134.10838803 162.82458763 134.10139394 166.79719234 C134.09512868 170.95452007 134.09455409 175.11184857 134.09336853 179.2691803 C134.09026456 187.13484021 134.08206378 195.00048617 134.07201904 202.86613995 C134.05873514 213.49983393 134.05335045 224.13353175 134.04751682 234.76723194 C134.03812325 251.51149841 134.01819809 268.25573543 134 285 C108.26 285 82.52 285 56 285 C56 274.11 56 263.22 56 252 C55.34 252 54.68 252 54 252 C53.70802734 252.98613281 53.70802734 252.98613281 53.41015625 253.9921875 C51.40642283 258.26607873 48.47775668 261.54125817 45.4375 265.125 C44.15606064 266.65609153 42.87481033 268.18734132 41.59375 269.71875 C40.66175781 270.82669922 40.66175781 270.82669922 39.7109375 271.95703125 C37.59017276 274.48935993 35.51219508 277.05485535 33.4375 279.625 C25.32870579 289.54244719 16.8473387 299.14494699 8.1953125 308.58984375 C6.26914483 310.70451538 4.37575901 312.84069603 2.5 315 C-1.13186476 319.18007076 -4.86958192 323.26095315 -8.6015625 327.3515625 C-10.55237143 329.50571307 -12.47393612 331.67718469 -14.375 333.875 C-17.99374274 338.04125937 -21.74900019 342.07705151 -25.50048828 346.12329102 C-29.73142836 350.69241165 -33.88989061 355.32172843 -38 360 C-41.7346373 356.95131649 -45.15688611 353.94520413 -48.28515625 350.2734375 C-51.87457722 346.11802001 -55.60184174 342.11329234 -59.375 338.125 C-64.23433068 332.96601159 -69.04688413 327.77635511 -73.76171875 322.484375 C-75.45693819 320.60277018 -77.16596225 318.74117757 -78.89453125 316.890625 C-83.70046564 311.74374705 -88.42415743 306.5873977 -92.875 301.125 C-93.60460937 300.238125 -94.33421875 299.35125 -95.0859375 298.4375 C-97 296 -97 296 -98.2890625 293.9375 C-101.89969358 288.53320058 -107.01634455 287.54871795 -112.99414062 285.96972656 C-145.28721908 277.35549995 -175.36228713 253.47245613 -192.29248047 224.81201172 C-201.4097017 208.91969995 -207.25828923 193.10712578 -210 175 C-210.25910156 173.37795654 -210.25910156 173.37795654 -210.5234375 171.72314453 C-211.25190387 166.032001 -211.18596287 160.35133152 -211.18530273 154.62402344 C-211.18746587 152.5329885 -211.20559634 150.44250281 -211.22460938 148.3515625 C-211.28056154 135.48142367 -210.02318847 123.01039326 -206.3125 110.625 C-206.05122314 109.73925293 -205.78994629 108.85350586 -205.52075195 107.94091797 C-193.71468613 69.00639153 -167.19871746 37.35559561 -131.31640625 18.16015625 C-90.68341322 -2.67655506 -44.59642152 -6.53794516 0 0 Z " fill="#03325B" transform="translate(301,232)"/>
<path d="M0 0 C2.26480755 0.8254357 3.6620165 1.7978024 5.50415039 3.34448242 C6.46732178 4.14233154 6.46732178 4.14233154 7.44995117 4.95629883 C8.12912598 5.52912598 8.80830078 6.10195312 9.50805664 6.69213867 C10.95094423 7.88750572 12.39496877 9.08150162 13.84008789 10.27416992 C14.55632324 10.86665527 15.27255859 11.45914063 16.01049805 12.06958008 C19.88829696 15.24148908 23.88137016 18.25820658 27.86352539 21.29760742 C33.05486575 25.26257147 38.1738523 29.32051201 43.30444336 33.36352539 C46.22426712 35.66338104 49.14757558 37.95879812 52.07055664 40.25463867 C53.23724025 41.17128377 54.40390692 42.08795044 55.57055664 43.00463867 C56.43680664 43.68526367 56.43680664 43.68526367 57.32055664 44.37963867 C62.57055664 48.50463867 62.57055664 48.50463867 64.31958008 49.87890625 C65.4894568 50.7980718 66.65937887 51.71717962 67.8293457 52.63623047 C70.69726821 54.88919961 73.56446654 57.1430759 76.42993164 59.39916992 C88.8086089 69.14229439 101.22340202 78.83775653 113.75805664 88.37963867 C119.71196429 92.91354242 125.58167106 97.53829148 131.40722656 102.2355957 C136.07153055 105.98500455 140.80598682 109.63375918 145.57055664 113.25463867 C152.28538515 118.35933686 158.89652368 123.57785839 165.46899414 128.86401367 C174.46342524 136.09625081 183.58805231 143.16584098 192.69555664 150.25463867 C193.46617432 150.85453613 194.23679199 151.45443359 195.03076172 152.07250977 C195.75803467 152.6379248 196.48530762 153.20333984 197.23461914 153.78588867 C198.20069092 154.53708984 198.20069092 154.53708984 199.1862793 155.3034668 C201.04686617 156.80126311 201.04686617 156.80126311 203.15994263 157.96833801 C205.07055664 159.75463867 205.07055664 159.75463867 205.55157471 162.46916199 C205.54269226 163.56392349 205.53380981 164.658685 205.5246582 165.78662109 C205.52420502 167.64821114 205.52420502 167.64821114 205.52374268 169.54740906 C205.50331617 170.90164836 205.48245219 172.25588112 205.46118164 173.61010742 C205.45372001 174.99586674 205.44802671 176.38163663 205.44403076 177.76741028 C205.42876787 181.41239626 205.38948165 185.05674329 205.34521484 188.70147705 C205.30427553 192.42158362 205.28602269 196.14179358 205.26586914 199.86206055 C205.22298697 207.15987768 205.15472904 214.45716861 205.07055664 221.75463867 C201.00330289 219.36684203 197.31256123 216.69565114 193.63305664 213.75463867 C192.3791962 212.76109128 191.12528868 211.76760329 189.87133789 210.77416992 C189.23663574 210.26966309 188.60193359 209.76515625 187.94799805 209.24536133 C185.07977965 206.9679437 182.20068181 204.70446759 179.32055664 202.44213867 C178.47086304 201.77408203 178.47086304 201.77408203 177.60400391 201.0925293 C171.99968303 196.69018471 166.37133662 192.31887238 160.7434082 187.94677734 C156.17504603 184.39624937 151.61644093 180.83389228 147.07055664 177.25463867 C139.53380216 171.32179838 131.95957705 165.4374188 124.38500977 159.55297852 C119.8653319 156.04116974 115.34804107 152.52629123 110.83032227 149.01196289 C107.03099919 146.05665828 103.23106327 143.10214812 99.42993164 140.14916992 C90.85253734 133.48440059 82.29063213 126.8008708 73.75610352 120.08129883 C70.86246837 117.80377661 67.96636341 115.5293986 65.07055664 113.25463867 C63.90387868 112.33798637 62.73721201 111.42131972 61.57055664 110.50463867 C60.70430664 109.82401367 60.70430664 109.82401367 59.82055664 109.12963867 C58.07055664 107.75463867 56.32055664 106.37963867 54.57055664 105.00463867 C53.99321777 104.5510498 53.41587891 104.09746094 52.82104492 103.63012695 C51.65261513 102.71200513 50.48432116 101.79371042 49.31616211 100.87524414 C46.42755158 98.60441498 43.53676116 96.33648921 40.64086914 94.07495117 C33.69438935 88.64385172 26.82582724 83.12741159 19.99682617 77.54931641 C13.78456762 72.49015412 7.453175 67.59624815 1.07055664 62.75463867 C-1.58909703 64.01789254 -3.93937975 65.38609927 -6.29272461 67.15307617 C-7.2400647 67.86258423 -7.2400647 67.86258423 -8.20654297 68.58642578 C-8.8782251 69.09568604 -9.54990723 69.60494629 -10.24194336 70.12963867 C-10.94907471 70.66274658 -11.65620605 71.19585449 -12.38476562 71.74511719 C-17.73611489 75.80018058 -22.99119021 79.96556882 -28.21411133 84.18408203 C-32.87070547 87.93620596 -37.60213261 91.57876072 -42.36694336 95.19213867 C-47.99737475 99.46442474 -53.53029958 103.83121923 -58.99194336 108.31713867 C-64.87774026 113.1493678 -70.88577991 117.77217462 -77.00219727 122.30786133 C-82.16983017 126.15169094 -87.20488752 130.13834724 -92.21484375 134.18457031 C-96.89450935 137.95363797 -101.64489186 141.61989243 -106.42944336 145.25463867 C-111.8211823 149.35182492 -117.15796402 153.50380746 -122.42944336 157.75463867 C-127.70092602 162.00547256 -133.03778462 166.15734315 -138.42944336 170.25463867 C-144.53982729 174.89833665 -150.56688468 179.63066486 -156.54443359 184.44384766 C-161.01627558 188.03953479 -165.54016373 191.55920902 -170.09765625 195.04541016 C-173.96083698 198.00257952 -177.79555636 200.99368398 -181.61694336 204.00463867 C-190.02432932 210.62670885 -198.47777688 217.18924077 -206.92944336 223.75463867 C-210.20061316 226.29587269 -213.47138379 228.83761936 -216.74194336 231.37963867 C-217.86197754 232.24939331 -217.86197754 232.24939331 -219.00463867 233.13671875 C-219.70814453 233.68352295 -220.41165039 234.23032715 -221.13647461 234.79370117 C-221.79341309 235.30320312 -222.45035156 235.81270508 -223.12719727 236.33764648 C-224.71126708 237.58310046 -226.26626729 238.86534218 -227.81616211 240.15307617 C-229.92944336 241.75463867 -229.92944336 241.75463867 -231.92944336 241.75463867 C-232.18514926 233.80946466 -232.38016135 225.8660281 -232.49937725 217.9177475 C-232.55662036 214.22615029 -232.63413285 210.53738114 -232.75927734 206.84741211 C-232.87946493 203.28097672 -232.94469487 199.71724605 -232.97309303 196.14894104 C-233.00309622 194.13634814 -233.08887635 192.12483446 -233.17570496 190.1138916 C-233.18174304 181.09730836 -233.18174304 181.09730836 -229.53056335 177.18264771 C-226.74570165 175.1467967 -223.94063261 173.43087402 -220.92944336 171.75463867 C-219.74018338 170.88458025 -218.56803705 169.98993609 -217.42553711 169.05932617 C-215.21923859 167.30668546 -213.01131986 165.55629188 -210.80053711 163.80932617 C-210.17904785 163.31787109 -209.55755859 162.82641602 -208.91723633 162.32006836 C-205.26875532 159.44681115 -201.59778882 156.60245866 -197.92944336 153.75463867 C-190.8190955 148.23069308 -183.7288176 142.6820964 -176.65454102 137.11206055 C-174.8136043 135.66348877 -172.97129523 134.21667687 -171.12866211 132.77026367 C-170.49927734 132.2761499 -169.86989258 131.78203613 -169.22143555 131.27294922 C-168.02557599 130.33417742 -166.82961971 129.39552881 -165.63354492 128.45703125 C-164.06418129 127.22459183 -162.49676198 125.98967774 -160.92944336 124.75463867 C-160.05496048 124.2265863 -159.1804776 123.69853394 -158.27949524 123.15447998 C-154.92652934 119.73047639 -155.22319486 116.4881941 -155.27001953 111.94702148 C-155.25953583 111.05886246 -155.24905212 110.17070343 -155.23825073 109.25563049 C-155.20947047 106.32265415 -155.21579574 103.3908561 -155.22241211 100.45776367 C-155.20929888 98.42322304 -155.19399582 96.38869544 -155.17658997 94.35418701 C-155.1366833 89.00133418 -155.12654584 83.64882146 -155.12255859 78.2958374 C-155.11159891 71.87215113 -155.06375226 65.44864699 -155.02207184 59.02510071 C-154.96290017 49.26812701 -154.95065523 39.51210145 -154.92944336 29.75463867 C-135.12944336 29.75463867 -115.32944336 29.75463867 -94.92944336 29.75463867 C-94.92944336 43.94463867 -94.92944336 58.13463867 -94.92944336 72.75463867 C-85.4263912 65.64384623 -85.4263912 65.64384623 -76.05444336 58.37963867 C-74.87479972 57.44859352 -73.69511084 56.51760568 -72.51538086 55.58666992 C-71.63124512 54.88791748 -71.63124512 54.88791748 -70.72924805 54.17504883 C-68.31454732 52.26936125 -65.89360069 50.37168934 -63.47290039 48.47363281 C-59.02405932 44.98469007 -54.58402901 41.48692507 -50.17944336 37.94213867 C-45.55038556 34.2267107 -40.86726999 30.5828663 -36.17944336 26.94213867 C-30.61071305 22.61673217 -25.04228841 18.29112717 -19.49194336 13.94213867 C-18.92975098 13.50377686 -18.36755859 13.06541504 -17.78833008 12.61376953 C-15.06160732 10.4770746 -12.38257577 8.305216 -9.76147461 6.03979492 C-8.7856543 5.20319336 -7.80983398 4.3665918 -6.80444336 3.50463867 C-5.95624023 2.75698242 -5.10803711 2.00932617 -4.23413086 1.23901367 C-1.92944336 -0.24536133 -1.92944336 -0.24536133 0 0 Z " fill="#03325C" transform="translate(258.929443359375,73.245361328125)"/>
<path d="M0 0 C1.01046387 0.00491455 2.02092773 0.0098291 3.06201172 0.01489258 C25.20258922 0.3590192 46.33168238 8.47603261 62.875 23.3125 C63.76960937 24.11300781 64.66421875 24.91351563 65.5859375 25.73828125 C82.40613904 41.63973229 93.32288504 63.29821337 94.15234375 86.578125 C94.19568904 88.88523914 94.22813565 91.1925823 94.25 93.5 C94.26409912 94.59304443 94.27819824 95.68608887 94.29272461 96.81225586 C94.1231603 125.21535056 75.72335932 149.09666551 58.875 170.3125 C58.28219238 171.05983398 57.68938477 171.80716797 57.07861328 172.57714844 C50.03898597 181.4146007 42.75989726 190.03817384 35.36767578 198.58154297 C33.84101643 200.35190849 32.3235683 202.12978469 30.80859375 203.91015625 C25.40390075 210.25692802 19.91951621 216.49691146 14.265625 222.625 C10.92716888 226.37803563 7.85148741 230.31397278 4.78515625 234.29296875 C4.15480469 234.95941406 3.52445312 235.62585938 2.875 236.3125 C-0.125 236.3125 -0.125 236.3125 -1.59765625 234.94921875 C-2.12230469 234.30597656 -2.64695312 233.66273438 -3.1875 233 C-6.04489913 229.58315219 -8.97717245 226.27198751 -12 223 C-16.16446934 218.43801313 -20.09718109 213.7346757 -23.9765625 208.9296875 C-25.97096296 206.50014512 -28.02206981 204.14816555 -30.125 201.8125 C-33.77863985 197.7489045 -37.22655639 193.5438962 -40.6640625 189.296875 C-42.36386976 187.23552143 -44.07442205 185.20953709 -45.8359375 183.203125 C-61.57412211 165.26903919 -77.20853579 145.66057412 -86.125 123.3125 C-86.56392578 122.31283203 -86.56392578 122.31283203 -87.01171875 121.29296875 C-94.24921935 103.95827219 -93.64292473 79.83398783 -87.125 62.3125 C-84.84243685 56.76968659 -82.09507811 51.51371682 -79.125 46.3125 C-78.54492188 45.2915625 -77.96484375 44.270625 -77.3671875 43.21875 C-64.5853833 22.05446026 -43.89453569 8.24753858 -20.125 2.3125 C-19.46886719 2.13662354 -18.81273437 1.96074707 -18.13671875 1.77954102 C-12.06193007 0.26016827 -6.24660491 -0.03606826 0 0 Z " fill="#FCFDFD" transform="translate(261.125,292.6875)"/>
<path d="M0 0 C9.36120745 4.99264397 14.52343293 11.77537919 18.42578125 21.53125 C20.35642786 32.53593568 18.69613853 42.03634112 12.42578125 51.40625 C7.53985351 57.4454551 0.44272647 61.05331343 -6.94921875 63.09375 C-15.4053426 63.94630176 -22.6464198 63.61385767 -29.94921875 59.09375 C-30.99529297 58.475 -30.99529297 58.475 -32.0625 57.84375 C-39.45160882 52.94550837 -43.59230011 45.52509079 -45.94921875 37.09375 C-47.02102814 27.38515101 -45.72590434 18.84048553 -40.32421875 10.62109375 C-30.53912286 -1.58989049 -14.71784886 -5.98692157 0 0 Z " fill="#04325A" transform="translate(275.94921875,354.90625)"/>
<path d="M0 0 C19.8 0 39.6 0 60 0 C60 14.19 60 28.38 60 43 C59.67 43 59.34 43 59 43 C58.97494385 42.14881592 58.9498877 41.29763184 58.92407227 40.4206543 C58.82793449 37.20930374 58.72877534 33.99806344 58.62768555 30.78686523 C58.58484114 29.40701849 58.54314027 28.02713567 58.50268555 26.6472168 C58.4437349 24.64362252 58.38008558 22.64016831 58.31640625 20.63671875 C58.26141968 18.83787231 58.26141968 18.83787231 58.20532227 17.00268555 C57.99679708 11.98710607 57.4851282 6.99499864 57 2 C49.48863592 1.94942035 41.97731551 1.91431743 34.46582031 1.89013672 C31.90883747 1.88005962 29.35186621 1.86639774 26.79492188 1.84912109 C23.12627308 1.82494783 19.45777621 1.81353415 15.7890625 1.8046875 C14.64007477 1.79436493 13.49108704 1.78404236 12.30728149 1.77340698 C11.2463327 1.77325592 10.18538391 1.77310486 9.09228516 1.77294922 C7.68663803 1.76628738 7.68663803 1.76628738 6.25259399 1.75949097 C3.79823929 1.7830677 3.79823929 1.7830677 2 4 C1.7183515 6.56656322 1.7183515 6.56656322 1.8125 9.4375 C1.81894531 10.40558594 1.82539062 11.37367187 1.83203125 12.37109375 C1.894768 15.10945962 1.894768 15.10945962 3 18 C2.69171156 20.00401331 2.35455287 22.00365249 2 24 C1.88973341 26.27553921 1.82476467 28.5535324 1.79467773 30.83154297 C1.78477814 31.48590836 1.77487854 32.14027374 1.76467896 32.81446838 C1.73333027 34.95700582 1.70841308 37.09956535 1.68359375 39.2421875 C1.66300115 40.73577418 1.6420041 42.22935534 1.62062073 43.72293091 C1.565638 47.63878888 1.5161246 51.55469737 1.46777344 55.47064209 C1.41738374 59.47266085 1.3617892 63.47460699 1.30664062 67.4765625 C1.19935051 75.31764679 1.09784183 83.15879215 1 91 C0.67 91 0.34 91 0 91 C0 60.97 0 30.94 0 0 Z " fill="#0B2B48" transform="translate(104,103)"/>
<path d="M0 0 C0.33 0 0.66 0 1 0 C1 45.21 1 90.42 1 137 C-0.65 137 -2.3 137 -4 137 C-3.26983563 136.42604508 -3.26983563 136.42604508 -2.52492046 135.84049511 C-0.45300556 133.3398078 -0.61635978 131.77772065 -0.60127258 128.55207825 C-0.58873444 127.42045761 -0.57619629 126.28883698 -0.5632782 125.1229248 C-0.56471329 123.88071167 -0.56614838 122.63849854 -0.56762695 121.35864258 C-0.5574353 120.05122604 -0.54724365 118.74380951 -0.53674316 117.39677429 C-0.50912287 113.81026748 -0.49988191 110.22391921 -0.49388909 106.6373198 C-0.48451842 102.88963405 -0.45831616 99.14206733 -0.43388367 95.39445496 C-0.39017885 88.29721857 -0.36165642 81.20000524 -0.33856028 74.10267514 C-0.31152989 66.02288445 -0.26761711 57.94321329 -0.22227156 49.86350787 C-0.12936829 33.24239912 -0.05771366 16.62126897 0 0 Z " fill="#0A2A45" transform="translate(434,379)"/>
<path d="M0 0 C0.495 0.495 0.495 0.495 1 1 C3.01594582 1.23427778 5.038474 1.41336124 7.0625 1.5625 C8.16722656 1.64628906 9.27195312 1.73007812 10.41015625 1.81640625 C11.26480469 1.87699219 12.11945313 1.93757812 13 2 C13 2.33 13 2.66 13 3 C-12.74 3 -38.48 3 -65 3 C-65 2.67 -65 2.34 -65 2 C-63.69442139 1.97494385 -62.38884277 1.9498877 -61.04370117 1.92407227 C-56.15510864 1.82921248 -51.26663252 1.7291904 -46.37817383 1.62768555 C-44.27077984 1.58463143 -42.16335755 1.54293854 -40.0559082 1.50268555 C-37.00984196 1.44425993 -33.96391438 1.38078215 -30.91796875 1.31640625 C-29.52664986 1.29133751 -29.52664986 1.29133751 -28.10722351 1.26576233 C-22.54695448 1.14255332 -17.05593921 0.78731346 -11.52290344 0.21983337 C-7.657085 -0.117015 -3.87857419 -0.1251153 0 0 Z " fill="#153450" transform="translate(422,514)"/>
<path d="M0 0 C0.99 0 1.98 0 3 0 C3 20.46 3 40.92 3 62 C-3.61764706 58.02941176 -3.61764706 58.02941176 -6 56 C-6 55.34 -6 54.68 -6 54 C-5.01 54 -4.02 54 -3 54 C-2.34 54.99 -1.68 55.98 -1 57 C-0.01 56.505 -0.01 56.505 1 56 C1.02542331 49.14982905 1.04289769 42.29967035 1.05493164 35.44946289 C1.05995022 33.12068222 1.0667665 30.79190469 1.07543945 28.46313477 C1.08761355 25.10952987 1.09325318 21.75596676 1.09765625 18.40234375 C1.10539818 16.84881447 1.10539818 16.84881447 1.11329651 15.26390076 C1.11369714 10.06316893 0.90790384 5.12384486 0 0 Z " fill="#092843" transform="translate(461,233)"/>
<path d="M0 0 C2.779778 1.61406465 4.76878935 3.77556346 6.9375 6.125 C6.34582031 6.01800781 5.75414062 5.91101563 5.14453125 5.80078125 C-0.00481436 4.99358245 -0.00481436 4.99358245 -4.9375 6.375 C-7.04510813 8.05342577 -7.04510813 8.05342577 -8.75 9.8125 C-9.183125 10.245625 -9.61625 10.67875 -10.0625 11.125 C-10.7225 11.125 -11.3825 11.125 -12.0625 11.125 C-12.0625 11.785 -12.0625 12.445 -12.0625 13.125 C-16.20703354 17.09070849 -20.20248008 19.831999 -26.0625 20.125 C-22.71299799 16.58385981 -19.03429981 13.65631471 -15.1875 10.6875 C-13.98107627 9.7521973 -12.77534121 8.81600559 -11.5703125 7.87890625 C-10.98531982 7.42515625 -10.40032715 6.97140625 -9.79760742 6.50390625 C-8.07706958 5.13657858 -6.41165153 3.71863433 -4.74609375 2.28515625 C-2.0625 0.125 -2.0625 0.125 0 0 Z " fill="#193C5C" transform="translate(259.0625,72.875)"/>
<path d="M0 0 C5.95703125 1.07421875 5.95703125 1.07421875 8 2 C9.02125799 3.65372607 10.01941621 5.32183636 11 7 C13.28703243 8.93094319 13.28703243 8.93094319 15.875 10.5625 C16.75671875 11.15546875 17.6384375 11.7484375 18.546875 12.359375 C19.35640625 12.90078125 20.1659375 13.4421875 21 14 C24.125 16.3125 24.125 16.3125 26 18 C26 18.66 26 19.32 26 20 C26.99 20 27.98 20 29 20 C31.5 22.3125 31.5 22.3125 34 25 C34.598125 25.598125 35.19625 26.19625 35.8125 26.8125 C36.204375 27.204375 36.59625 27.59625 37 28 C33.72485984 27.39221394 31.76195447 26.28888705 29.1640625 24.2265625 C28.43566162 23.65389648 27.70726074 23.08123047 26.95678711 22.49121094 C26.18729736 21.87536133 25.41780762 21.25951172 24.625 20.625 C23.83295166 19.99883789 23.04090332 19.37267578 22.22485352 18.72753906 C20.60164474 17.4440944 18.98030792 16.15827871 17.36083984 14.87011719 C15.16443338 13.13025437 12.95547002 11.40857094 10.73828125 9.6953125 C10.09358887 9.19563965 9.44889648 8.6959668 8.78466797 8.18115234 C7.57569539 7.24446225 6.36514158 6.30980861 5.15283203 5.37744141 C1.11292727 2.22585455 1.11292727 2.22585455 0 0 Z " fill="#153249" transform="translate(330,190)"/>
<path d="M0 0 C0.33 0.99 0.66 1.98 1 3 C-0.03447266 4.10794922 -0.03447266 4.10794922 -1.08984375 5.23828125 C-5.78098954 10.29299714 -10.36943437 15.3675161 -14.6875 20.75 C-18.50150993 25.49341668 -22.59159765 29.80781357 -27 34 C-27.495 32.515 -27.495 32.515 -28 31 C-27.27554687 30.28457031 -26.55109375 29.56914063 -25.8046875 28.83203125 C-16.7326019 19.67149913 -8.37021276 9.79927348 0 0 Z " fill="#102E48" transform="translate(324,520)"/>
<path d="M0 0 C0.33 0 0.66 0 1 0 C1.84224877 7.03869523 2.13596489 13.95387056 2.09765625 21.0390625 C2.09553383 22.54936539 2.09553383 22.54936539 2.09336853 24.09017944 C2.08782431 27.26848473 2.07528259 30.44671644 2.0625 33.625 C2.05747778 35.79557189 2.05291614 37.9661449 2.04882812 40.13671875 C2.03787323 45.42450376 2.02119176 50.71224662 2 56 C2.66 56 3.32 56 4 56 C3.34 57.32 2.68 58.64 2 60 C1.34 60 0.68 60 0 60 C0 40.2 0 20.4 0 0 Z " fill="#092540" transform="translate(28,254)"/>
<path d="M0 0 C0.53625 0.268125 1.0725 0.53625 1.625 0.8125 C-0.04382028 2.65698557 -1.51004999 3.88914999 -3.6875 5.125 C-6.01542057 6.58671757 -7.50061046 7.86101475 -9.375 9.8125 C-11.83585731 12.3677636 -14.2717194 14.06193146 -17.375 15.8125 C-18.6434375 16.92625 -18.6434375 16.92625 -19.9375 18.0625 C-20.741875 18.64 -21.54625 19.2175 -22.375 19.8125 C-24.52734375 19.421875 -24.52734375 19.421875 -26.375 18.8125 C-25.86114746 18.41458252 -25.34729492 18.01666504 -24.81787109 17.60668945 C-22.46104077 15.78058358 -20.10551285 13.95280493 -17.75 12.125 C-16.94175781 11.49916016 -16.13351563 10.87332031 -15.30078125 10.22851562 C-11.78330484 7.49746687 -8.29688592 4.7679264 -4.9375 1.84375 C-2.375 -0.1875 -2.375 -0.1875 0 0 Z " fill="#183A58" transform="translate(78.375,215.1875)"/>
<path d="M0 0 C0.99 0 1.98 0 3 0 C3 0.66 3 1.32 3 2 C1.15914134 3.56258933 -0.68537591 5.00609007 -2.625 6.4375 C-3.80921172 7.32860645 -4.99278189 8.22056596 -6.17578125 9.11328125 C-6.79791504 9.58072754 -7.42004883 10.04817383 -8.06103516 10.52978516 C-11.34450416 13.01946664 -14.57751055 15.5728414 -17.8125 18.125 C-18.73699951 18.8528772 -18.73699951 18.8528772 -19.68017578 19.59545898 C-21.12063368 20.72965034 -22.5603984 21.86472197 -24 23 C-24.33 22.01 -24.66 21.02 -25 20 C-24.34 20 -23.68 20 -23 20 C-22.67 19.01 -22.34 18.02 -22 17 C-19.9375 16.3125 -19.9375 16.3125 -18 16 C-18 15.34 -18 14.68 -18 14 C-13.61538462 11 -13.61538462 11 -11 11 C-10.75378906 10.40574219 -10.50757813 9.81148437 -10.25390625 9.19921875 C-8.79942335 6.6482098 -7.32467072 5.49781654 -4.9375 3.8125 C-4.22464844 3.30332031 -3.51179688 2.79414063 -2.77734375 2.26953125 C-2.19082031 1.85058594 -1.60429687 1.43164062 -1 1 C-0.67 0.67 -0.34 0.34 0 0 Z " fill="#16354E" transform="translate(203,175)"/>
<path d="M0 0 C0.33 0 0.66 0 1 0 C1.64870339 3.0202423 2.29404156 6.04113979 2.9375 9.0625 C3.11990234 9.91005859 3.30230469 10.75761719 3.49023438 11.63085938 C4.92894533 18.40588007 6.14837118 24.9819346 6.0625 31.9375 C6.05347656 32.89527344 6.04445313 33.85304688 6.03515625 34.83984375 C6.02355469 35.55269531 6.01195312 36.26554687 6 37 C5.34 37 4.68 37 4 37 C3.89042969 35.79085937 3.78085937 34.58171875 3.66796875 33.3359375 C2.6414963 17.22027673 2.6414963 17.22027673 -2 2 C-1.34 2 -0.68 2 0 2 C0 1.34 0 0.68 0 0 Z " fill="#27455F" transform="translate(429,342)"/>
<path d="M0 0 C1.86688477 -0.01836914 1.86688477 -0.01836914 3.77148438 -0.03710938 C4.96193359 -0.03904297 6.15238281 -0.04097656 7.37890625 -0.04296875 C8.46888916 -0.04707764 9.55887207 -0.05118652 10.68188477 -0.05541992 C13.4375 0.1875 13.4375 0.1875 16.4375 2.1875 C-0.8875 2.6825 -0.8875 2.6825 -18.5625 3.1875 C-17.5625 1.1875 -17.5625 1.1875 -15.88696289 0.57299805 C-10.65808808 -0.29417907 -5.28588125 0.00274591 0 0 Z " fill="#0E2E4C" transform="translate(261.5625,290.8125)"/>
<path d="M0 0 C0.66 0.33 1.32 0.66 2 1 C0.54782324 2.50596108 -0.91192861 4.00462104 -2.375 5.5 C-3.18710938 6.3353125 -3.99921875 7.170625 -4.8359375 8.03125 C-7 10 -7 10 -9 10 C-10.10636407 12.13370214 -11.01080552 14.04106098 -11.625 16.375 C-13.73770565 20.40834715 -17.28649731 22.48690864 -21 25 C-19.52859543 20.45048471 -16.95897709 17.18809216 -13.875 13.625 C-13.38797607 13.05499268 -12.90095215 12.48498535 -12.39916992 11.89770508 C-8.59951355 7.52364583 -4.55697231 3.5907375 0 0 Z " fill="#DDECF2" transform="translate(205,312)"/>
<path d="M0 0 C0.66 0.33 1.32 0.66 2 1 C-1.12488306 5.29150607 -4.24226432 9.24226432 -8 13 C-8.33 13.99 -8.66 14.98 -9 16 C-11.375 18.25 -11.375 18.25 -14 20 C-14.99 19.67 -15.98 19.34 -17 19 C-16.43152344 18.3709375 -15.86304688 17.741875 -15.27734375 17.09375 C-10.9172552 12.26052997 -6.58278663 7.40890036 -2.3125 2.49609375 C-1.56450684 1.64347059 -0.80201622 0.80201622 0 0 Z " fill="#13324E" transform="translate(293,495)"/>
<path d="M0 0 C1.28094579 4.22340824 0.64949746 6.87625635 -1 11 C-3.5 12.625 -3.5 12.625 -6 14 C-6.69658363 15.65438613 -7.36096883 17.32254318 -8 19 C-10.625 21.8125 -10.625 21.8125 -13 24 C-13.66 23.67 -14.32 23.34 -15 23 C-14.12988281 21.76636719 -14.12988281 21.76636719 -13.2421875 20.5078125 C-8.55275439 13.81996717 -4.07841816 7.08525194 0 0 Z " fill="#1E405D" transform="translate(344,427)"/>
<path d="M0 0 C-6.08783682 3.27806598 -11.67295567 4.2778952 -18.51171875 4.65625 C-21.24693207 4.85000889 -21.24693207 4.85000889 -24 7 C-24 6.34 -24 5.68 -24 5 C-25.32 4.67 -26.64 4.34 -28 4 C-24.27447765 3.12938352 -20.54415009 2.28143046 -16.8125 1.4375 C-15.75740234 1.19064453 -14.70230469 0.94378906 -13.61523438 0.68945312 C-12.59365234 0.46064453 -11.57207031 0.23183594 -10.51953125 -0.00390625 C-9.11344604 -0.32597046 -9.11344604 -0.32597046 -7.67895508 -0.65454102 C-4.84051784 -1.02056568 -2.75363632 -0.71843485 0 0 Z " fill="#234461" transform="translate(231,233)"/>
<path d="M0 0 C0 0.33 0 0.66 0 1 C-7.92 1 -15.84 1 -24 1 C-24 1.66 -24 2.32 -24 3 C-30.6 3 -37.2 3 -44 3 C-44 2.67 -44 2.34 -44 2 C-29.31559427 -0.12487525 -14.81844517 -0.22384358 0 0 Z " fill="#597288" transform="translate(275,229)"/>
<path d="M0 0 C2.8591987 2.8591987 3.00568458 6.15765102 3.6875 10 C3.82994141 10.73734375 3.97238281 11.4746875 4.11914062 12.234375 C5.12915137 17.74169726 5.12915137 17.74169726 4 20 C3.77141886 22.0374763 3.58975722 24.08040303 3.4375 26.125 C3.35371094 27.22070312 3.26992188 28.31640625 3.18359375 29.4453125 C3.12300781 30.28835938 3.06242187 31.13140625 3 32 C2.67 32 2.34 32 2 32 C1.95101563 30.76765625 1.90203125 29.5353125 1.8515625 28.265625 C1.47741201 19.73947669 1.00108078 11.44370086 -0.6953125 3.0546875 C-0.79585938 2.37664062 -0.89640625 1.69859375 -1 1 C-0.67 0.67 -0.34 0.34 0 0 Z " fill="#183552" transform="translate(353,360)"/>
<path d="M0 0 C0.66 0.33 1.32 0.66 2 1 C-6.17288905 11.12589111 -6.17288905 11.12589111 -13 13 C-13.99 12.67 -14.98 12.34 -16 12 C-10.72 8.04 -5.44 4.08 0 0 Z " fill="#0F314F" transform="translate(96,200)"/>
<path d="M0 0 C0 3 0 3 -1.375 4.6875 C-3 6 -3 6 -5 6 C-5.185625 6.680625 -5.37125 7.36125 -5.5625 8.0625 C-7.58082253 12.18689821 -10.66287393 14.90378945 -14 18 C-14.99 17.34 -15.98 16.68 -17 16 C-5.47835991 4.29384966 -5.47835991 4.29384966 0 0 Z " fill="#24435F" transform="translate(143,268)"/>
<path d="M0 0 C0.99 0.33 1.98 0.66 3 1 C-0.43153914 4.53191322 -3.97375062 7.7137505 -7.8125 10.8125 C-9.27623047 11.99779297 -9.27623047 11.99779297 -10.76953125 13.20703125 C-11.50558594 13.79871094 -12.24164063 14.39039063 -13 15 C-13.66 14.67 -14.32 14.34 -15 14 C-15 13.34 -15 12.68 -15 12 C-13.68 11.67 -12.36 11.34 -11 11 C-11 10.01 -11 9.02 -11 8 C-6.77142857 4 -6.77142857 4 -3 4 C-2.67 3.01 -2.34 2.02 -2 1 C-1.34 0.67 -0.68 0.34 0 0 Z " fill="#1A3C5A" transform="translate(96,258)"/>
<path d="M0 0 C7.87973087 3.79394449 7.87973087 3.79394449 10.734375 6.8671875 C13.50050298 9.47116315 16.38376766 10.99955918 19.75 12.75 C20.35199219 13.06582031 20.95398438 13.38164062 21.57421875 13.70703125 C23.046028 14.47797895 24.52254742 15.23992324 26 16 C25.34 16.66 24.68 17.32 24 18 C5.17336209 7.06120248 5.17336209 7.06120248 0 2 C0 1.34 0 0.68 0 0 Z " fill="#1D3B55" transform="translate(138,489)"/>
<path d="M0 0 C4.47100112 1.45757912 7.35592168 3.79466391 10.875 6.875 C15.04735769 10.46925222 19.11611653 13.45188689 24 16 C24.66 16.66 25.32 17.32 26 18 C24.3515625 18.77734375 24.3515625 18.77734375 22 19 C19.3359375 17.19140625 19.3359375 17.19140625 16.375 14.5625 C15.31602621 13.63696479 14.25611408 12.71250222 13.1953125 11.7890625 C12.66454102 11.32145508 12.13376953 10.85384766 11.58691406 10.37207031 C8.41119306 7.62629308 5.07270318 5.08039855 1.765625 2.49609375 C1.18296875 2.00238281 0.6003125 1.50867188 0 1 C0 0.67 0 0.34 0 0 Z " fill="#1F3E58" transform="translate(384,232)"/>
<path d="M0 0 C2.74380894 0.49887435 5.29241642 1.09954602 7.9375 2 C13.75172188 3.73907529 19.97838475 3.68263332 26 4 C25.67 4.66 25.34 5.32 25 6 C16.56248755 6.43207745 9.30923096 6.67927403 2 2 C1.34 1.34 0.68 0.68 0 0 Z " fill="#24425D" transform="translate(244,412)"/>
<path d="M0 0 C0 6.23946379 -5.09184277 10.21095303 -9.25 14.375 C-10.82852504 15.92158956 -12.4102956 17.46490376 -14 19 C-14.66 18.67 -15.32 18.34 -16 18 C-15.02160156 16.93072266 -15.02160156 16.93072266 -14.0234375 15.83984375 C-9.26660294 10.62697048 -4.55366772 5.39250124 0 0 Z " fill="#D7E6F0" transform="translate(332,514)"/>
<path d="M0 0 C7.8316181 -0.2700558 15.27279225 0.76892281 23 2 C23 2.33 23 2.66 23 3 C15.41 3 7.82 3 0 3 C0 2.01 0 1.02 0 0 Z " fill="#23445D" transform="translate(278,230)"/>
<path d="M0 0 C3.29783715 1.09927905 3.83371996 1.78383594 5.875 4.4375 C8.31438661 7.41355166 10.18269609 8.9895372 14 10 C14 9.34 14 8.68 14 8 C14.66 8 15.32 8 16 8 C14.63016497 11.16115776 14.0109362 11.9927092 11 14 C9.16056628 12.04709472 7.32840869 10.08818082 5.5 8.125 C4.97535156 7.56941406 4.45070312 7.01382813 3.91015625 6.44140625 C0 2.2265625 0 2.2265625 0 0 Z " fill="#224057" transform="translate(251,578)"/>
<path d="M0 0 C0.80824219 0.33773438 1.61648437 0.67546875 2.44921875 1.0234375 C3.51785156 1.46945312 4.58648437 1.91546875 5.6875 2.375 C6.74324219 2.81585938 7.79898438 3.25671875 8.88671875 3.7109375 C11.58356657 4.82757462 14.28716264 5.92291801 17 7 C17 7.66 17 8.32 17 9 C9.93463111 7.74646681 4.28543527 5.43796251 -2 2 C-1.34 1.34 -0.68 0.68 0 0 Z " fill="#1D3D57" transform="translate(173,509)"/>
<path d="M0 0 C0.33 0 0.66 0 1 0 C1.55253221 7.35174806 0.51064108 12.511583 -3 19 C-3.66 19 -4.32 19 -5 19 C-3.83795007 12.45150687 -2.26616615 6.25461856 0 0 Z " fill="#24445F" transform="translate(99,329)"/>
<path d="M0 0 C0.99 0.66 1.98 1.32 3 2 C-5.07744875 9.85193622 -5.07744875 9.85193622 -11 10 C-7.50640535 6.40365256 -3.88901869 3.16548033 0 0 Z " fill="#1A3C5B" transform="translate(209,111)"/>
<path d="M0 0 C0.66 0 1.32 0 2 0 C1.44054438 3.78904032 -0.1382794 5.46111174 -2.875 8.0625 C-3.57367188 8.73410156 -4.27234375 9.40570312 -4.9921875 10.09765625 C-5.65476562 10.72542969 -6.31734375 11.35320313 -7 12 C-8.00333887 12.99664994 -9.0047058 13.99531624 -10 15 C-9.35494404 11.51669784 -8.01782732 8.90567134 -6 6 C-5.34 6 -4.68 6 -4 6 C-3.71125 5.38125 -3.4225 4.7625 -3.125 4.125 C-2 2 -2 2 0 0 Z " fill="#1C3F5C" transform="translate(287,561)"/>
<path d="M0 0 C0.66 0 1.32 0 2 0 C0.2703384 4.20953787 -2.68206745 7.35143576 -5.625 10.75 C-6.140625 11.35199219 -6.65625 11.95398438 -7.1875 12.57421875 C-8.45469135 14.05260866 -9.72685775 15.52673171 -11 17 C-11.765625 15.28125 -11.765625 15.28125 -12 13 C-10.234375 10.78125 -10.234375 10.78125 -7.75 8.5 C-4.31299668 5.31220816 -4.31299668 5.31220816 -1.328125 1.71875 C-0.88984375 1.1515625 -0.4515625 0.584375 0 0 Z " fill="#0D2F4A" transform="translate(197,316)"/>
<path d="M0 0 C0.66 0.33 1.32 0.66 2 1 C0.73253547 2.7732461 -0.53910235 4.54350975 -1.8125 6.3125 C-2.52019531 7.29863281 -3.22789063 8.28476562 -3.95703125 9.30078125 C-5.54630837 11.40057187 -7.07457629 13.22034969 -9 15 C-9.66 14.67 -10.32 14.34 -11 14 C-9.73253547 12.2267539 -8.46089765 10.45649025 -7.1875 8.6875 C-6.47980469 7.70136719 -5.77210937 6.71523438 -5.04296875 5.69921875 C-3.45369163 3.59942813 -1.92542371 1.77965031 0 0 Z " fill="#133451" transform="translate(126,285)"/>
<path d="M0 0 C6.3343346 5.09500827 11.62789574 10.92530665 17 17 C16.34 17.66 15.68 18.32 15 19 C13 18 13 18 11.69921875 15.79296875 C9.07672733 11.48243688 5.53737946 8.0788604 2.08203125 4.42578125 C0 2 0 2 0 0 Z " fill="#15334C" transform="translate(243,509)"/>
<path d="M0 0 C0.99 0.33 1.98 0.66 3 1 C1.71024828 3.43853057 0.41828475 5.87584412 -0.875 8.3125 C-1.42220703 9.34793945 -1.42220703 9.34793945 -1.98046875 10.40429688 C-2.33496094 11.07138672 -2.68945312 11.73847656 -3.0546875 12.42578125 C-3.37937012 13.03848877 -3.70405273 13.65119629 -4.03857422 14.2824707 C-4.94547058 15.90258648 -5.9701029 17.45515434 -7 19 C-7 16.69 -7 14.38 -7 12 C-6.34 12 -5.68 12 -5 12 C-5 10.68 -5 9.36 -5 8 C-4.34 8 -3.68 8 -3 8 C-2.67 6.68 -2.34 5.36 -2 4 C-1.34 4 -0.68 4 0 4 C0 2.68 0 1.36 0 0 Z " fill="#183855" transform="translate(182,334)"/>
<path d="M0 0 C3.1137596 1.49921758 6.03799023 3.22279414 9 5 C10.32608822 5.68096422 11.65686601 6.35330586 13 7 C13 7.99 13 8.98 13 10 C15.475 10.99 15.475 10.99 18 12 C17.67 12.99 17.34 13.98 17 15 C15.10151236 13.44063615 13.20621337 11.87764411 11.3125 10.3125 C10.78205078 9.87744141 10.25160156 9.44238281 9.70507812 8.99414062 C6.2784424 6.15612944 3.10009939 3.19212461 0 0 Z " fill="#1B3955" transform="translate(297,164)"/>
<path d="M0 0 C0.99 0 1.98 0 3 0 C3 0.66 3 1.32 3 2 C1.03062339 3.62356346 -0.93345148 5.13559566 -3 6.625 C-3.85851562 7.25535156 -3.85851562 7.25535156 -4.734375 7.8984375 C-6.15203933 8.93805801 -7.57549262 9.96977591 -9 11 C-9.99 10.34 -10.98 9.68 -12 9 C-9.24865461 6.04485124 -6.60266225 3.8475191 -3 2 C-2.01 2 -1.02 2 0 2 C0 1.34 0 0.68 0 0 Z " fill="#11324C" transform="translate(130,232)"/>
<path d="M0 0 C4.67199091 1.53093488 8.02170005 4.10757395 11.8125 7.125 C12.40998047 7.59292969 13.00746094 8.06085938 13.62304688 8.54296875 C15.08616792 9.69005565 16.54366297 10.84431234 18 12 C17.01 12.33 16.02 12.66 15 13 C13.2925002 11.71937515 11.62626404 10.38232443 10 9 C9.01 8.67 8.02 8.34 7 8 C7 7.34 7 6.68 7 6 C6.01 6 5.02 6 4 6 C0 1.54285714 0 1.54285714 0 0 Z " fill="#10304A" transform="translate(335,134)"/>
<path d="M0 0 C0.66 0.33 1.32 0.66 2 1 C0.58036591 6.67853635 -2.39363961 10.53174216 -6 15 C-6.71484375 13.359375 -6.71484375 13.359375 -7 11 C-5.56640625 8.203125 -5.56640625 8.203125 -3.5625 5.25 C-2.90378906 4.26515625 -2.24507813 3.2803125 -1.56640625 2.265625 C-1.04949219 1.51796875 -0.53257812 0.7703125 0 0 Z " fill="#1D3C59" transform="translate(291,395)"/>
<path d="M0 0 C-3.96 3.3 -7.92 6.6 -12 10 C-12.99 9.01 -13.98 8.02 -15 7 C-14.01 7 -13.02 7 -12 7 C-12 6.34 -12 5.68 -12 5 C-10.02 4.01 -8.04 3.02 -6 2 C-6 1.34 -6 0.68 -6 0 C-3 -1 -3 -1 0 0 Z " fill="#1C3F5C" transform="translate(113,249)"/>
<path d="M0 0 C0.66 1.32 1.32 2.64 2 4 C1.0479279 5.00596297 0.08812654 6.00461563 -0.875 7 C-1.40867187 7.556875 -1.94234375 8.11375 -2.4921875 8.6875 C-4 10 -4 10 -6 10 C-6.66 11.32 -7.32 12.64 -8 14 C-8.66 13.67 -9.32 13.34 -10 13 C-5.05 6.565 -5.05 6.565 0 0 Z " fill="#1A3B55" transform="translate(322,459)"/>
<path d="M0 0 C0.66 0.33 1.32 0.66 2 1 C-0.86720436 4.04640463 -3.83935407 6.78043089 -7.125 9.375 C-7.78757812 9.89835938 -8.45015625 10.42171875 -9.1328125 10.9609375 C-9.74898437 11.30382812 -10.36515625 11.64671875 -11 12 C-11.99 11.67 -12.98 11.34 -14 11 C-13.07316406 10.28972656 -12.14632812 9.57945312 -11.19140625 8.84765625 C-9.98174158 7.91930895 -8.77210776 6.99092145 -7.5625 6.0625 C-6.95083984 5.59392578 -6.33917969 5.12535156 -5.70898438 4.64257812 C-2.75031115 2.44328176 -2.75031115 2.44328176 0 0 Z " fill="#1C3C56" transform="translate(48,237)"/>
<path d="M0 0 C0.66 0.33 1.32 0.66 2 1 C0.52202738 4.67056937 -1.47615477 6.41085783 -4.625 8.75 C-5.44226562 9.36359375 -6.25953125 9.9771875 -7.1015625 10.609375 C-7.72804687 11.06828125 -8.35453125 11.5271875 -9 12 C-9.33 11.01 -9.66 10.02 -10 9 C-8.6875 7.5 -8.6875 7.5 -7 6 C-6.01 6 -5.02 6 -4 6 C-3.67 5.01 -3.34 4.02 -3 3 C-2.34 3 -1.68 3 -1 3 C-0.67 2.01 -0.34 1.02 0 0 Z " fill="#1B3F5D" transform="translate(51,293)"/>
<path d="M0 0 C2.82907082 1.59135234 4.81070285 3.75326142 7 6.125 C6.11248047 6.01671875 6.11248047 6.01671875 5.20703125 5.90625 C1.11738278 5.42589977 -2.8738531 4.99189849 -7 5.125 C-2.64516129 0.16532258 -2.64516129 0.16532258 0 0 Z " fill="#22405D" transform="translate(259,72.875)"/>
<path d="M0 0 C0.33 0.66 0.66 1.32 1 2 C-3.46351289 7.22325977 -8.0744893 12.20922972 -13 17 C-13.66 16.67 -14.32 16.34 -15 16 C-14.25234375 15.26394531 -13.5046875 14.52789063 -12.734375 13.76953125 C-11.73944821 12.78399056 -10.74466412 11.79830579 -9.75 10.8125 C-9.25886719 10.32974609 -8.76773437 9.84699219 -8.26171875 9.34960938 C-5.27813023 6.38591145 -2.56677663 3.342921 0 0 Z " fill="#D2E4EB" transform="translate(282,570)"/>
<path d="M0 0 C2.57781906 2.57781906 2.62129616 4.4401839 3 8 C2.67 8.33 2.34 8.66 2 9 C1.76807135 10.51469448 1.58784762 12.03754562 1.4375 13.5625 C1.35371094 14.38878906 1.26992187 15.21507812 1.18359375 16.06640625 C1.12300781 16.70449219 1.06242187 17.34257812 1 18 C0.34 17.34 -0.32 16.68 -1 16 C-0.98252073 13.24410223 -0.86136729 10.61213324 -0.625 7.875 C-0.56828125 7.12089844 -0.5115625 6.36679687 -0.453125 5.58984375 C-0.3115535 3.72581904 -0.15700041 1.86278863 0 0 Z " fill="#1A3B58" transform="translate(91,360)"/>
<path d="M0 0 C3.465 1.98 3.465 1.98 7 4 C7 4.99 7 5.98 7 7 C9.475 7.99 9.475 7.99 12 9 C11.67 9.99 11.34 10.98 11 12 C6.71 8.7 2.42 5.4 -2 2 C-1.34 1.34 -0.68 0.68 0 0 Z " fill="#20425D" transform="translate(435,270)"/>
<path d="M0 0 C4.95 0 9.9 0 15 0 C15 3.3 15 6.6 15 10 C13 6 13 6 12.2265625 3.796875 C11.10197453 1.71488676 11.10197453 1.71488676 8.3984375 1.390625 C6.90183594 1.32101563 6.90183594 1.32101563 5.375 1.25 C3.87066406 1.16492188 3.87066406 1.16492188 2.3359375 1.078125 C1.56507813 1.05234375 0.79421875 1.0265625 0 1 C0 0.67 0 0.34 0 0 Z " fill="#072641" transform="translate(149,103)"/>
<path d="M0 0 C0.99 0 1.98 0 3 0 C3 0.66 3 1.32 3 2 C3.928125 2.268125 4.85625 2.53625 5.8125 2.8125 C8.80495496 3.92733616 10.1561378 4.47682015 12 7 C12.36224579 8.3257703 12.69922866 9.65894613 13 11 C12.48050781 10.60167969 11.96101563 10.20335937 11.42578125 9.79296875 C8.34339243 7.45126486 5.34805618 5.20303277 2 3.25 C1.34 2.8375 0.68 2.425 0 2 C0 1.34 0 0.68 0 0 Z " fill="#123049" transform="translate(312,306)"/>
<path d="M0 0 C7.52135922 1.35631068 7.52135922 1.35631068 9.8125 4.4375 C10.204375 5.283125 10.59625 6.12875 11 7 C12.58245275 8.75149165 12.58245275 8.75149165 14 10 C9.83878671 10 8.46553396 8.20445395 5.3125 5.5625 C4.31863281 4.73878906 3.32476562 3.91507813 2.30078125 3.06640625 C1.54152344 2.38449219 0.78226562 1.70257813 0 1 C0 0.67 0 0.34 0 0 Z " fill="#20435F" transform="translate(330,190)"/>
<path d="M0 0 C4.10110762 1.40398279 6.98089159 3.37087038 10.3125 6.125 C11.19550781 6.84945312 12.07851563 7.57390625 12.98828125 8.3203125 C13.65214844 8.87460938 14.31601562 9.42890625 15 10 C14.34 10.66 13.68 11.32 13 12 C13 11.34 13 10.68 13 10 C11.68 9.67 10.36 9.34 9 9 C9 8.34 9 7.68 9 7 C7.88625 6.773125 6.7725 6.54625 5.625 6.3125 C2 5 2 5 0.5625 2.375 C0.376875 1.59125 0.19125 0.8075 0 0 Z " fill="#1D3D5A" transform="translate(298,105)"/>
<path d="M0 0 C3.83663072 1.34929464 6.65172569 3.07751025 9.8125 5.625 C10.99779297 6.57246094 10.99779297 6.57246094 12.20703125 7.5390625 C12.79871094 8.02117187 13.39039063 8.50328125 14 9 C13.34 9.66 12.68 10.32 12 11 C7.125 8.25 7.125 8.25 6 6 C5.01 5.67 4.02 5.34 3 5 C1.3125 2.4375 1.3125 2.4375 0 0 Z " fill="#193853" transform="translate(284,94)"/>
<path d="M0 0 C0.33 0.66 0.66 1.32 1 2 C-2.86364295 6.48717034 -6.74790208 10.87675353 -11 15 C-11.66 14.67 -12.32 14.34 -13 14 C-12.56429688 13.57589844 -12.12859375 13.15179687 -11.6796875 12.71484375 C-7.54991517 8.64764373 -3.71958871 4.44536212 0 0 Z " fill="#D2E2E9" transform="translate(302,548)"/>
<path d="M0 0 C-5.28 2.97 -10.56 5.94 -16 9 C-16 8.01 -16 7.02 -16 6 C-14.5839401 5.20724852 -13.16712447 4.41584688 -11.75 3.625 C-10.56664062 2.96371094 -10.56664062 2.96371094 -9.359375 2.2890625 C-8.58078125 1.86367187 -7.8021875 1.43828125 -7 1 C-6.30390625 0.59523437 -5.6078125 0.19046875 -4.890625 -0.2265625 C-3 -1 -3 -1 0 0 Z " fill="#DCE9F3" transform="translate(174,249)"/>
<path d="M0 0 C0.66 0 1.32 0 2 0 C4.41685712 4.22949995 5.34833144 7.12335991 5 12 C4.01 12.495 4.01 12.495 3 13 C2.49242138 11.58603098 1.99425075 10.16868271 1.5 8.75 C1.08234375 7.56664062 1.08234375 7.56664062 0.65625 6.359375 C0 4 0 4 0 0 Z " fill="#21425E" transform="translate(94,419)"/>
<path d="M0 0 C2.91517292 1.07401108 4.77810176 1.77810176 7 4 C7.61875 4.28875 8.2375 4.5775 8.875 4.875 C11.40156407 6.21259274 13.05926336 7.92063932 15 10 C14.01 10.33 13.02 10.66 12 11 C9.79022309 9.44398573 7.83174195 7.89926913 5.8125 6.125 C5.25369141 5.65191406 4.69488281 5.17882812 4.11914062 4.69140625 C2.71928247 3.49152783 1.35622346 2.24898719 0 1 C0 0.67 0 0.34 0 0 Z " fill="#1C3D58" transform="translate(269,142)"/>
<path d="M0 0 C0.66 0.33 1.32 0.66 2 1 C-2.625 6.75 -2.625 6.75 -6 9 C-7.32 8.67 -8.64 8.34 -10 8 C-6.7 5.36 -3.4 2.72 0 0 Z " fill="#23435E" transform="translate(62,226)"/>
<path d="M0 0 C0.66 0 1.32 0 2 0 C2 0.66 2 1.32 2 2 C3.670625 2.4021875 3.670625 2.4021875 5.375 2.8125 C9 4 9 4 11 7 C10.67 7.99 10.34 8.98 10 10 C8.32756598 8.71580959 6.66218553 7.42242815 5 6.125 C3.6078125 5.04605469 3.6078125 5.04605469 2.1875 3.9453125 C1.465625 3.30335938 0.74375 2.66140625 0 2 C0 1.34 0 0.68 0 0 Z " fill="#D6E8F0" transform="translate(341,136)"/>
<path d="M0 0 C0.66 0 1.32 0 2 0 C3.7265625 2.3359375 3.7265625 2.3359375 5.625 5.375 C6.25664062 6.37273437 6.88828125 7.37046875 7.5390625 8.3984375 C9 11 9 11 9 13 C8.01 13.33 7.02 13.66 6 14 C5.73445313 13.32453125 5.46890625 12.6490625 5.1953125 11.953125 C4.84210938 11.06109375 4.48890625 10.1690625 4.125 9.25 C3.77695312 8.36828125 3.42890625 7.4865625 3.0703125 6.578125 C2.1353291 4.3259752 1.12219206 2.16350541 0 0 Z " fill="#22415B" transform="translate(407,297)"/>
<path d="M0 0 C0.99 0.66 1.98 1.32 3 2 C-0.99613521 5.71069698 -3.37082652 7.59791618 -9 8 C-6.14723863 5.06799526 -3.34920216 2.35684596 0 0 Z " fill="#153856" transform="translate(181,133)"/>
<path d="M0 0 C2 1 2 1 2.8515625 2.890625 C5.41509434 10.71069182 5.41509434 10.71069182 5 15 C4.67 14.34 4.34 13.68 4 13 C3.34 13 2.68 13 2 13 C1.34 8.71 0.68 4.42 0 0 Z " fill="#183A55" transform="translate(424,329)"/>
<path d="M0 0 C0.66 0.33 1.32 0.66 2 1 C0.61392377 2.46761013 -0.78431195 3.92374189 -2.1875 5.375 C-2.96480469 6.18710937 -3.74210938 6.99921875 -4.54296875 7.8359375 C-6.987055 9.98859852 -8.92616557 11.00632706 -12 12 C-8.39424999 7.41086363 -4.52615993 3.67832017 0 0 Z " fill="#D0E0E5" transform="translate(205,312)"/>
<path d="M0 0 C5.86809507 0.52393706 10.54873741 1.76108858 16 4 C16 4.66 16 5.32 16 6 C10.30860098 4.90301833 5.25432063 3.45946923 0 1 C0 0.67 0 0.34 0 0 Z " fill="#0A2A43" transform="translate(314,236)"/>
<path d="M0 0 C0 0.66 0 1.32 0 2 C-0.66 2 -1.32 2 -2 2 C-2.2475 2.61875 -2.495 3.2375 -2.75 3.875 C-4.21956837 6.37326623 -5.28564404 7.06694014 -8 8 C-8.66 7.67 -9.32 7.34 -10 7 C-8.71372289 5.82739389 -7.42080217 4.6620717 -6.125 3.5 C-5.04605469 2.52546875 -5.04605469 2.52546875 -3.9453125 1.53125 C-2 0 -2 0 0 0 Z " fill="#1D3D57" transform="translate(247,357)"/>
<path d="M0 0 C2.35302007 2.35302007 2.39392208 3.27435295 2.75 6.5 C2.84796875 7.2940625 2.9459375 8.088125 3.046875 8.90625 C3 11 3 11 1 13 C0.63901937 11.02206479 0.28638652 9.04260427 -0.0625 7.0625 C-0.25972656 5.96035156 -0.45695312 4.85820312 -0.66015625 3.72265625 C-0.77230469 2.82417969 -0.88445312 1.92570312 -1 1 C-0.67 0.67 -0.34 0.34 0 0 Z " fill="#1C3D58" transform="translate(353,360)"/>
<path d="M0 0 C-3.36423277 2.96052484 -6.69159287 3.92289822 -11 5 C-11.66 4.34 -12.32 3.68 -13 3 C-4.57142857 -0.42857143 -4.57142857 -0.42857143 0 0 Z " fill="#D9E7F0" transform="translate(241,296)"/>
<path d="M0 0 C0.66 0.33 1.32 0.66 2 1 C0.78395887 2.32467011 -0.44845222 3.63432405 -1.6875 4.9375 C-2.37199219 5.66839844 -3.05648437 6.39929688 -3.76171875 7.15234375 C-6.23537632 9.19429843 -7.85043641 9.65249999 -11 10 C-7.50640535 6.40365256 -3.88901869 3.16548033 0 0 Z " fill="#D6E7EF" transform="translate(77,276)"/>
<path d="M0 0 C0 0.66 0 1.32 0 2 C-3.96 3.65 -7.92 5.3 -12 7 C-12.66 6.34 -13.32 5.68 -14 5 C-12.04350603 4.16235732 -10.08474444 3.33000941 -8.125 2.5 C-6.48917969 1.80390625 -6.48917969 1.80390625 -4.8203125 1.09375 C-2 0 -2 0 0 0 Z " fill="#203D56" transform="translate(188,243)"/>
<path d="M0 0 C0.99 0.33 1.98 0.66 3 1 C-0.3 3.64 -3.6 6.28 -7 9 C-7.33 8.01 -7.66 7.02 -8 6 C-6.7391988 4.96680187 -5.46596742 3.94875621 -4.1875 2.9375 C-3.47980469 2.36902344 -2.77210938 1.80054688 -2.04296875 1.21484375 C-1.36878906 0.81394531 -0.69460937 0.41304688 0 0 Z " fill="#D9EAEF" transform="translate(186,127)"/>
<path d="M0 0 C4.12751449 0.60698743 7.3321148 2.03810791 11 4 C10.34 4.66 9.68 5.32 9 6 C6.03 5.01 3.06 4.02 0 3 C0 2.01 0 1.02 0 0 Z " fill="#1E3E59" transform="translate(342,245)"/>
<path d="M0 0 C0.66 0 1.32 0 2 0 C0.78934835 3.63195496 -0.53691126 4.42896192 -3.5625 6.6875 C-4.38878906 7.31011719 -5.21507813 7.93273437 -6.06640625 8.57421875 C-6.70449219 9.04472656 -7.34257813 9.51523438 -8 10 C-8.66 9.34 -9.32 8.68 -10 8 C-9.34 8 -8.68 8 -8 8 C-8 7.34 -8 6.68 -8 6 C-7.360625 5.896875 -6.72125 5.79375 -6.0625 5.6875 C-5.381875 5.460625 -4.70125 5.23375 -4 5 C-3.67 4.01 -3.34 3.02 -3 2 C-2.01 2 -1.02 2 0 2 C0 1.34 0 0.68 0 0 Z " fill="#D8E7F0" transform="translate(95,198)"/>
<path d="M0 0 C1.65 0 3.3 0 5 0 C1.97727468 3.25524265 -1.25718301 5.61820737 -5 8 C-4.67 6.68 -4.34 5.36 -4 4 C-3.34 4 -2.68 4 -2 4 C-1.34 2.68 -0.68 1.36 0 0 Z " fill="#23435D" transform="translate(242,144)"/>
<path d="M0 0 C0.33 1.32 0.66 2.64 1 4 C-0.21484375 5.703125 -0.21484375 5.703125 -1.9375 7.25 C-2.50339844 7.77078125 -3.06929688 8.2915625 -3.65234375 8.828125 C-4.09707031 9.21484375 -4.54179687 9.6015625 -5 10 C-5.66 9.67 -6.32 9.34 -7 9 C-4.69 6.03 -2.38 3.06 0 0 Z " fill="#153650" transform="translate(336,441)"/>
<path d="M0 0 C4.95696581 1.23924145 7.11658466 2.78577758 10 7 C6.433255 7 5.89456323 6.36308045 3.3125 4.0625 C2.68988281 3.51722656 2.06726563 2.97195312 1.42578125 2.41015625 C0.95527344 1.94480469 0.48476563 1.47945312 0 1 C0 0.67 0 0.34 0 0 Z " fill="#1B3954" transform="translate(343,200)"/>
<path d="M0 0 C0.99 0.33 1.98 0.66 3 1 C-1.455 4.465 -1.455 4.465 -6 8 C-6.33 7.01 -6.66 6.02 -7 5 C-6.360625 4.896875 -5.72125 4.79375 -5.0625 4.6875 C-4.381875 4.460625 -3.70125 4.23375 -3 4 C-2.67 3.01 -2.34 2.02 -2 1 C-1.34 0.67 -0.68 0.34 0 0 Z " fill="#1E3E58" transform="translate(173,199)"/>
<path d="M0 0 C4.43458973 1.3937282 6.87378374 3.60582235 10 7 C7.69 6.67 5.38 6.34 3 6 C2.67 5.01 2.34 4.02 2 3 C1.34 2.67 0.68 2.34 0 2 C0 1.34 0 0.68 0 0 Z " fill="#1C3E5A" transform="translate(366,158)"/>
<path d="M0 0 C0.99 0 1.98 0 3 0 C3 0.66 3 1.32 3 2 C3.99 2 4.98 2 6 2 C6.33 3.98 6.66 5.96 7 8 C5.8274869 7.04882866 4.66212985 6.08882991 3.5 5.125 C2.8503125 4.59132813 2.200625 4.05765625 1.53125 3.5078125 C1.0259375 3.01023437 0.520625 2.51265625 0 2 C0 1.34 0 0.68 0 0 Z " fill="#1C3D5B" transform="translate(206,529)"/>
<path d="M0 0 C0.66 0.99 1.32 1.98 2 3 C-0.64 4.98 -3.28 6.96 -6 9 C-6 8.01 -6 7.02 -6 6 C-5.34 6 -4.68 6 -4 6 C-3.71125 5.38125 -3.4225 4.7625 -3.125 4.125 C-2 2 -2 2 0 0 Z " fill="#1A3C57" transform="translate(142,222)"/>
<path d="M0 0 C0.66 0 1.32 0 2 0 C0.49776416 4.20626034 -2.28550034 5.73900021 -6 8 C-6 6.68 -6 5.36 -6 4 C-5.01 4 -4.02 4 -3 4 C-3 3.34 -3 2.68 -3 2 C-2.01 2 -1.02 2 0 2 C0 1.34 0 0.68 0 0 Z " fill="#20425C" transform="translate(220,162)"/>
<path d="M0 0 C0.99 0.33 1.98 0.66 3 1 C-1.75 5.875 -1.75 5.875 -4 7 C-4.66 6.34 -5.32 5.68 -6 5 C-2.25 2 -2.25 2 0 2 C0 1.34 0 0.68 0 0 Z " fill="#1A3D5C" transform="translate(228,155)"/>
<path d="M0 0 C3.33511388 2.9901021 5.21521119 5.89498574 7 10 C7 10.66 7 11.32 7 12 C6.01 12 5.02 12 4 12 C3.566875 10.4221875 3.566875 10.4221875 3.125 8.8125 C2.22774807 5.77181289 1.23576581 2.91287656 0 0 Z " fill="#23415C" transform="translate(286,363)"/>
<path d="M0 0 C0.66 0 1.32 0 2 0 C1.67 3.63 1.34 7.26 1 11 C0.01 10.34 -0.98 9.68 -2 9 C-1.34 6.03 -0.68 3.06 0 0 Z " fill="#1B3A56" transform="translate(169,369)"/>
<path d="M0 0 C-1.45255699 3.82946843 -3.42895561 5.12050295 -7 7 C-7.33 6.01 -7.66 5.02 -8 4 C-7.01 4 -6.02 4 -5 4 C-5 3.34 -5 2.68 -5 2 C-2 0 -2 0 0 0 Z " fill="#13324F" transform="translate(41,303)"/>
<path d="M0 0 C-0.33 0.66 -0.66 1.32 -1 2 C-5.1734802 3.35024359 -8.73933592 2.7518819 -13 2 C-13 1.67 -13 1.34 -13 1 C-8.59085217 -0.10228696 -4.51617599 -0.07654536 0 0 Z " fill="#C7D9E3" transform="translate(258,293)"/>
<path d="M0 0 C-2.64 1.98 -5.28 3.96 -8 6 C-8 2 -8 2 -6.25 0.1875 C-4 -1 -4 -1 0 0 Z " fill="#20415B" transform="translate(154,217)"/>
<path d="M0 0 C4.43458973 1.3937282 6.87378374 3.60582235 10 7 C7 7 7 7 5 6 C5 5.34 5 4.68 5 4 C4.360625 3.71125 3.72125 3.4225 3.0625 3.125 C1 2 1 2 0 0 Z " fill="#1B3956" transform="translate(436,213)"/>
<path d="M0 0 C0.99 0.33 1.98 0.66 3 1 C-0.07999946 4.67230705 -2.2482602 5.56802365 -7 6 C-4.74259377 3.66475218 -2.7194239 1.81294927 0 0 Z " fill="#163652" transform="translate(240,87)"/>
<path d="M0 0 C1.12894876 0.93274109 2.25300876 1.87140122 3.375 2.8125 C4.00148437 3.33457031 4.62796875 3.85664062 5.2734375 4.39453125 C7 6 7 6 9 9 C6 9 6 9 4.39453125 7.5390625 C3.61142578 6.59160156 3.61142578 6.59160156 2.8125 5.625 C2.28269531 4.99851562 1.75289062 4.37203125 1.20703125 3.7265625 C0 2 0 2 0 0 Z " fill="#1C3953" transform="translate(243,509)"/>
<path d="M0 0 C-2.68841859 2.25245881 -4.64641875 3.88213958 -8 5 C-8.33 4.34 -8.66 3.68 -9 3 C-8.34 3 -7.68 3 -7 3 C-7 2.34 -7 1.68 -7 1 C-3.375 -1.125 -3.375 -1.125 0 0 Z " fill="#14324B" transform="translate(284,410)"/>
<path d="M0 0 C0.99 0 1.98 0 3 0 C2.67 1.98 2.34 3.96 2 6 C1.01 6.33 0.02 6.66 -1 7 C-0.67 4.69 -0.34 2.38 0 0 Z " fill="#1B3C58" transform="translate(95,341)"/>
<path d="M0 0 C0.99 0 1.98 0 3 0 C3.66 0.99 4.32 1.98 5 3 C5.99 3 6.98 3 8 3 C7.67 4.32 7.34 5.64 7 7 C5.82780457 6.21654285 4.66236332 5.42297164 3.5 4.625 C2.8503125 4.18414062 2.200625 3.74328125 1.53125 3.2890625 C1.0259375 2.86367188 0.520625 2.43828125 0 2 C0 1.34 0 0.68 0 0 Z " fill="#17334D" transform="translate(455,287)"/>
<path d="M0 0 C2.13671875 0.390625 2.13671875 0.390625 4 1 C2.8803014 2.00593243 1.7540588 3.0045849 0.625 4 C-0.00148438 4.556875 -0.62796875 5.11375 -1.2734375 5.6875 C-3 7 -3 7 -5 7 C-3.86873442 3.60620325 -2.77333918 2.21867135 0 0 Z " fill="#153550" transform="translate(77,273)"/>
<path d="M0 0 C0.66 0.99 1.32 1.98 2 3 C-0.8125 4.5625 -0.8125 4.5625 -4 6 C-4.99 5.67 -5.98 5.34 -7 5 C-4.69 3.35 -2.38 1.7 0 0 Z " fill="#1D3B58" transform="translate(151,262)"/>
<path d="M0 0 C0.66 0 1.32 0 2 0 C0.55746343 3.36591866 -1.33264727 5.51047079 -4 8 C-4.66 7.67 -5.32 7.34 -6 7 C-4.625 5 -4.625 5 -3 3 C-2.34 3 -1.68 3 -1 3 C-0.67 2.01 -0.34 1.02 0 0 Z " fill="#0C2D46" transform="translate(272,578)"/>
<path d="M0 0 C0 4.38968456 -2.12805101 5.76905739 -5 9 C-5.99 8.67 -6.98 8.34 -8 8 C-5.33333333 5.33333333 -2.66666667 2.66666667 0 0 Z " fill="#DAE8EE" transform="translate(289,404)"/>
<path d="M0 0 C0.99 0 1.98 0 3 0 C3 1.32 3 2.64 3 4 C3.66 4 4.32 4 5 4 C4.67 5.65 4.34 7.3 4 9 C2.00902154 6.01353231 1.05875074 3.40312738 0 0 Z " fill="#183A56" transform="translate(347,347)"/>
<path d="M0 0 C0.33 0 0.66 0 1 0 C1.25 5.625 1.25 5.625 -1 9 C-1.66 9 -2.32 9 -3 9 C-2.01 6.03 -1.02 3.06 0 0 Z " fill="#24425B" transform="translate(103,320)"/>
<path d="M0 0 C0.99 0 1.98 0 3 0 C1.86280581 3.41158256 0.95657056 4.11854601 -2 6 C-2.66 6 -3.32 6 -4 6 C-2.84826645 3.53199953 -1.95216435 1.95216435 0 0 Z " fill="#DCEBF2" transform="translate(34,245)"/>
<path d="M0 0 C2.125 0.375 2.125 0.375 4 1 C1.64722731 3.72426311 -0.62496331 4.8141763 -4 6 C-2.84826645 3.53199953 -1.95216435 1.95216435 0 0 Z " fill="#11314C" transform="translate(76,215)"/>
<path d="M0 0 C-0.1875 1.8125 -0.1875 1.8125 -1 4 C-3.5625 5.75 -3.5625 5.75 -6 7 C-5.37162381 3.35541809 -4.14650034 0 0 0 Z " fill="#E4F2F8" transform="translate(218,102)"/>
<path d="M0 0 C-1.33332095 3.99996286 -3.4957827 4.83782337 -7 7 C-6.61402985 4.20171644 -6.19863427 3.1794116 -4.0625 1.25 C-2 0 -2 0 0 0 Z " fill="#DCEAF1" transform="translate(227,96)"/>
<path d="M0 0 C2.97 0.99 5.94 1.98 9 3 C9 3.99 9 4.98 9 6 C7.68397477 5.38245741 6.37226444 4.75571258 5.0625 4.125 C4.33160156 3.77695312 3.60070312 3.42890625 2.84765625 3.0703125 C1 2 1 2 0 0 Z " fill="#13314C" transform="translate(154,501)"/>
<path d="M0 0 C3.96 1.98 3.96 1.98 8 4 C7.34 4.66 6.68 5.32 6 6 C1.125 3.375 1.125 3.375 0 0 Z " fill="#21415C" transform="translate(361,254)"/>
<path d="M0 0 C0.33 0.99 0.66 1.98 1 3 C-0.65 4.32 -2.3 5.64 -4 7 C-4.33 6.01 -4.66 5.02 -5 4 C-3.35 2.68 -1.7 1.36 0 0 Z " fill="#14314A" transform="translate(33,249)"/>
<path d="M0 0 C-2.75924185 1.80411967 -3.88972103 2.0127245 -7.25 1.625 C-8.1575 1.41875 -9.065 1.2125 -10 1 C-10 0.67 -10 0.34 -10 0 C-6.30458414 -0.95024979 -3.69541586 -0.95024979 0 0 Z " fill="#1C3A55" transform="translate(231,233)"/>
<path d="M0 0 C0.66 0.33 1.32 0.66 2 1 C-0.31 3.31 -2.62 5.62 -5 8 C-5.66 7.34 -6.32 6.68 -7 6 C-4.69 4.02 -2.38 2.04 0 0 Z " fill="#DBEAF1" transform="translate(209,173)"/>
<path d="M0 0 C1.32 0 2.64 0 4 0 C6.25 2.5 6.25 2.5 8 5 C7.67 5.66 7.34 6.32 7 7 C5.83040013 6.02433888 4.66438823 5.044375 3.5 4.0625 C2.8503125 3.51722656 2.200625 2.97195312 1.53125 2.41015625 C1.0259375 1.94480469 0.520625 1.47945312 0 1 C0 0.67 0 0.34 0 0 Z " fill="#112F48" transform="translate(282,152)"/>
<path d="M0 0 C2.97 0.33 5.94 0.66 9 1 C5 3 5 3 1 3 C0.67 2.01 0.34 1.02 0 0 Z " fill="#CDDDE6" transform="translate(187,518)"/>
<path d="M0 0 C0.66 0.99 1.32 1.98 2 3 C0.35 4.32 -1.3 5.64 -3 7 C-3.66 6.67 -4.32 6.34 -5 6 C-3.35 4.02 -1.7 2.04 0 0 Z " fill="#224360" transform="translate(311,473)"/>
<path d="M0 0 C0.99 0 1.98 0 3 0 C1.75453595 3.73639216 0.36595047 4.18756513 -3 6 C-2.42655063 3.13275314 -2.1385485 2.1385485 0 0 Z " fill="#274560" transform="translate(44,299)"/>
<path d="M0 0 C5.875 3.75 5.875 3.75 7 6 C5.35 5.67 3.7 5.34 2 5 C2 4.34 2 3.68 2 3 C1.34 3 0.68 3 0 3 C0 2.01 0 1.02 0 0 Z " fill="#E0EDF5" transform="translate(454,288)"/>
<path d="M0 0 C1.65 0 3.3 0 5 0 C3.35 1.65 1.7 3.3 0 5 C-0.66 4.67 -1.32 4.34 -2 4 C-1.34 2.68 -0.68 1.36 0 0 Z " fill="#153651" transform="translate(209,169)"/>
<path d="M0 0 C3.11198065 1.49836105 6.0534615 3.19933758 9 5 C8.34 5.66 7.68 6.32 7 7 C5.83040013 6.02433888 4.66438823 5.044375 3.5 4.0625 C2.8503125 3.51722656 2.200625 2.97195312 1.53125 2.41015625 C1.0259375 1.94480469 0.520625 1.47945312 0 1 C0 0.67 0 0.34 0 0 Z " fill="#16334F" transform="translate(297,164)"/>
</svg>
